# xmcd
#
# Track frame offsets: 
#        150
#        28717
#        52031
#        71490
#        96270
#        123000
#        150842
#        172981
#
# Disc length: 2507 seconds
#
# Revision: 1
# Processed by: cddbd v1.5.2PL0 Copyright (c) Steve Scherf et al.
# Submitted via: ExactAudioCopy v0.99pb5
#
DISCID=5a09c908
DTITLE=Mathias Eick, Andreas Ulvo, Audun Erlien, Torstein Lofthus, Gar
DTITLE=d Nilssen - Skala
DYEAR=2011
DGENRE=Jazz
TTITLE0=Skala <M. Eick>
TTITLE1=Edinburgh <M. Eick>
TTITLE2=June <M. Eick>
TTITLE3=Oslo <M. Eick>
TTITLE4=Joni <M. Eick>
TTITLE5=Biermann <M. Eick>
TTITLE6=Day After <M. Eick>
TTITLE7=Epilogue <M. Eick>
EXTD=YEAR: 2011
EXTT0=
EXTT1=
EXTT2=
EXTT3=
EXTT4=
EXTT5=
EXTT6=
EXTT7=
PLAYORDER=
